<svg xmlns="http://www.w3.org/2000/svg" width="1200" height="750" viewBox="0 0 1200 750">
  <defs>
    <filter id="s" x="-20%" y="-20%" width="140%" height="140%">
      <feDropShadow dx="0" dy="12" stdDeviation="14" flood-color="#0A1F44" flood-opacity="0.15"></feDropShadow>
    </filter>
  </defs>

  <rect width="1200" height="750" fill="#F9F5EF"></rect>
  <rect x="56" y="56" width="1088" height="638" rx="22" fill="#FFFFFF" filter="url(#s)"></rect>
  <rect x="56" y="56" width="1088" height="78" rx="22" fill="#0A1F44"></rect>
  <text x="92" y="105" font-family="Inter, Arial" font-size="22" fill="#F9F5EF" font-weight="700">Dashboard - Evolución Temporal</text>

  <!-- Chart area -->
  <rect x="92" y="160" width="1020" height="510" rx="18" fill="#FFFFFF" stroke="rgba(10,31,68,0.14)"></rect>
  <text x="120" y="200" font-family="Inter, Arial" font-size="14" fill="rgba(11,18,32,0.72)" font-weight="700">Evolución mensual (ilustrativo)</text>

  <!-- Grid -->
  <g opacity="0.10" stroke="#0A1F44" stroke-width="1">
    <path d="M120 250 H1084M120 320 H1084M120 390 H1084M120 460 H1084M120 530 H1084M120 600 H1084"></path>
    <path d="M220 230 V630M320 230 V630M420 230 V630M520 230 V630M620 230 V630M720 230 V630M820 230 V630M920 230 V630M1020 230 V630"></path>
  </g>

  <!-- Line 1 -->
  <path d="M120 560 L220 520 L320 540 L420 480 L520 500 L620 430 L720 460 L820 410 L920 440 L1020 380 L1084 410" fill="none" stroke="#0A1F44" stroke-width="5" stroke-linecap="round" stroke-linejoin="round"></path>

  <!-- Line 2 -->
  <path d="M120 590 L220 570 L320 560 L420 540 L520 545 L620 520 L720 510 L820 495 L920 500 L1020 480 L1084 470" fill="none" stroke="#C9A24D" stroke-width="5" stroke-linecap="round" stroke-linejoin="round"></path>

  <!-- Dots -->
  <g fill="#0A1F44">
    <circle cx="220" cy="520" r="6"></circle><circle cx="420" cy="480" r="6"></circle><circle cx="620" cy="430" r="6"></circle><circle cx="820" cy="410" r="6"></circle><circle cx="1020" cy="380" r="6"></circle>
  </g>
  <g fill="#C9A24D">
    <circle cx="220" cy="570" r="6"></circle><circle cx="420" cy="540" r="6"></circle><circle cx="620" cy="520" r="6"></circle><circle cx="820" cy="495" r="6"></circle><circle cx="1020" cy="480" r="6"></circle>
  </g>

  <!-- Legend -->
  <g font-family="Inter, Arial" font-size="13" fill="rgba(11,18,32,0.78)" font-weight="600">
    <rect x="120" y="645" width="14" height="14" fill="#0A1F44" rx="3"></rect><text x="142" y="657">Serie A</text>
    <rect x="220" y="645" width="14" height="14" fill="#C9A24D" rx="3"></rect><text x="242" y="657">Serie B</text>
  </g>
</svg>
